<svg xmlns="http://www.w3.org/2000/svg" xmlns:xlink="http://www.w3.org/1999/xlink" xmlns:sketch="http://www.bohemiancoding.com/sketch/ns" viewBox="0 0 30 37.5" version="1.1" x="0px" y="0px"><title>gesture_081-swipe-finger-hand-left-right-touch</title><desc>Created with Sketch.</desc><g stroke="none" stroke-width="1" fill="none" fill-rule="evenodd" sketch:type="MSPage"><g sketch:type="MSArtboardGroup" transform="translate(-405.000000, -405.000000)" fill="#000000"><path d="M411.414214,407.497108 L410.707107,406.790001 L408,409.497108 L410.707107,412.204214 L411.414214,411.497108 L409.914214,409.997108 L417,409.997108 L417,408.997108 L409.914214,408.997108 L411.414214,407.497108 Z M428.585786,407.497108 L429.292893,406.790001 L432,409.497108 L429.292893,412.204214 L428.585786,411.497108 L430.085786,409.997108 L423,409.997108 L423,408.997108 L430.085786,408.997108 L428.585786,407.497108 Z M419.00037,413.717821 L420.00037,413.14 L421,413.717179 L420.999663,422 L422.000033,422 L421.999292,419.971894 L423,419.393433 L423.998922,419.971252 L423.999663,422 L425.000033,422 L425.06521,420.578461 L426.065918,420 L427.06484,420.57782 L426.999663,422 L428.000033,422 L428.000033,420.998706 L429.000033,420.420885 L429.999663,420.998065 L429.999708,427.076778 L428,432.409333 L428,435 L429,435 L429,432.590667 L431,427.257334 L430.999663,420.434091 L429.000403,419.280885 L427.999544,419.858625 L426.065917,418.86 L425.065012,419.44 L422.999999,418.253432 L421.998869,418.833432 L421.99961,413.154487 L420.00074,412 L418.00074,413.154487 L418.000253,420.956796 L414,423.81412 L414,428.643398 L417.972876,435 L419.152124,435 L415,428.356602 L415,424.328738 L418.000176,422.185755 L418.000176,427 L419.000069,427 L419.00037,413.717821 Z" sketch:type="MSShapeGroup"/></g></g><text x="0" y="45" fill="#000000" font-size="5px" font-weight="bold" font-family="'Helvetica Neue', Helvetica, Arial-Unicode, Arial, Sans-serif">Created by Pham Thi Dieu Linh</text><text x="0" y="50" fill="#000000" font-size="5px" font-weight="bold" font-family="'Helvetica Neue', Helvetica, Arial-Unicode, Arial, Sans-serif">from the Noun Project</text></svg>